<svg width="16" height="16" viewBox="0 0 16 16" fill="none" xmlns="http://www.w3.org/2000/svg">
<g clip-path="url(#clip0)">
<path d="M6.58498 0C8.26774 0 9.74398 0.328904 11.0137 0.986711C12.2987 1.64452 13.2854 2.58534 13.9738 3.80917C14.6775 5.0177 15.0294 6.4251 15.0294 8.03137C15.0294 9.63765 14.6775 11.0451 13.9738 12.2536C13.2854 13.4468 12.2987 14.3723 11.0137 15.0301C9.74398 15.688 8.26774 16.0169 6.58498 16.0169H0.985962V0H6.58498ZM6.47024 13.2862C8.15301 13.2862 9.45332 12.8273 10.3712 11.9094C11.2891 10.9915 11.748 9.69884 11.748 8.03137C11.748 6.36391 11.2891 5.06359 10.3712 4.13042C9.45332 3.18195 8.15301 2.70772 6.47024 2.70772H4.19851V13.2862H6.47024Z" fill="black"/>
</g>
<defs>
<clipPath id="clip0">
<rect width="16" height="16" fill="white"/>
</clipPath>
</defs>
</svg>
